<svg width="400" height="400" viewBox="0 0 400 400" fill="none" xmlns="http://www.w3.org/2000/svg">
<g clip-path="url(#clip0_4219_5274)">
<path d="M398 200C398 309.352 309.352 398 200 398C90.6476 398 2 309.352 2 200C2 90.6476 90.6476 2 200 2C309.352 2 398 90.6476 398 200Z" fill="#B6F61B" stroke="#003D25" stroke-width="4"/>
<path d="M85.8389 82.0153C85.827 82.1925 85.7833 82.348 85.7828 82.5295L85.3168 246.706C85.3125 248.202 85.7683 249.707 86.4449 250.453L197.285 372.611C197.987 373.386 198.857 373.389 199.563 372.617L311.912 250.207C312.593 249.465 313.058 247.962 313.062 246.467L313.528 82.2855C313.532 80.8721 313.042 79.2497 312.4 78.539L280.692 43.5965C280.016 42.8425 279.096 42.8399 278.415 43.59L247.311 77.4768L224.27 102.581C224.267 102.586 224.265 102.59 224.263 102.594L199.346 129.743L121.346 43.784C120.665 43.0256 119.754 43.023 119.068 43.7775L86.9321 78.7895C86.3313 79.4448 85.929 80.7447 85.8389 82.0153C85.827 82.1925 85.8603 81.7085 85.8389 82.0153ZM234.519 101.366L246.707 88.0912L246.525 152.125L235.708 163.907L227.486 172.866L227.668 108.829L234.519 101.366ZM122.013 209.209L122.116 172.839L196.712 255.054L196.609 291.419L122.013 209.209ZM226.316 184.097L249.924 158.372C249.926 158.372 249.926 158.367 249.926 158.367L277.034 128.826L276.938 162.658L201.296 245.082L201.392 211.254L226.311 184.101C226.313 184.097 226.313 184.097 226.316 184.097ZM251.167 121.383L277.135 93.0879L277.062 118.854L251.094 147.149L251.167 121.383ZM281.589 128.844L308.756 158.785L308.66 192.613L281.493 162.676L281.589 128.844ZM308.784 148.8L281.617 118.863L281.69 93.0965L308.857 123.038L308.784 148.8ZM90.1204 159.055L117.685 129.018L117.589 162.85L90.0244 192.883L90.1204 159.055ZM122.24 129.031L196.835 211.241L196.739 245.069L122.144 162.863L122.24 129.031ZM222.917 177.85L201.42 201.273L201.493 175.511L222.99 152.088L222.917 177.85ZM196.865 201.256L122.271 119.05L122.344 93.284L196.938 175.494L196.865 201.256ZM117.714 119.042L90.1488 149.07L90.2219 123.308L117.787 93.2711L117.714 119.042ZM89.9961 202.868L117.561 172.831L117.458 209.2L89.8929 239.233L89.9961 202.868ZM201.267 255.067L276.91 172.639L276.806 209.008L201.164 291.432L201.267 255.067ZM281.465 172.652L308.631 202.598L308.528 238.967L281.361 209.021L281.465 172.652ZM308.886 113.057L281.719 83.1202L281.799 54.8252L308.966 84.7666L308.886 113.057ZM277.164 83.1073L251.196 111.402L251.276 83.1116L277.244 54.8166L277.164 83.1073ZM223.019 142.103L201.521 165.531L201.602 137.231L223.099 113.808L223.019 142.103ZM196.967 165.518L122.372 83.3077L122.453 55.0127L197.047 137.218L196.967 165.518ZM117.815 83.2948L90.2502 113.327L90.3305 85.0365L117.895 54.9998L117.815 83.2948ZM198.449 363.878L92.149 246.726L119.714 216.693L197.716 302.652C198.377 303.389 199.329 303.391 199.993 302.658L279.063 216.501L306.23 246.447L198.449 363.878Z" fill="#003D25"/>
</g>
<defs>
<clipPath id="clip0_4219_5274">
<rect width="400" height="400" fill="white"/>
</clipPath>
</defs>
</svg>
