<svg width="109" height="166" viewBox="0 0 109 166" fill="none" xmlns="http://www.w3.org/2000/svg">
<path d="M90.2564 69.8247C89.4752 77.6954 85.5303 93.4369 76 93.4369" stroke="#B6F61B" stroke-width="3.45675" stroke-linecap="round"/>
<path d="M90.2564 110.589C91.1474 104.203 95.6471 91.4321 106.518 91.4321" stroke="#B6F61B" stroke-width="3.45675" stroke-linecap="round"/>
<path d="M90.2564 69.6018C91.1474 76.8785 95.6471 91.4319 106.518 91.4319" stroke="#B6F61B" stroke-width="3.45675" stroke-linecap="round"/>
<path d="M90.2564 110.589C89.4752 104.872 85.5303 93.4369 76 93.4369" stroke="#B6F61B" stroke-width="3.45675" stroke-linecap="round"/>
<path d="M16.2564 122.825C15.4752 130.695 11.5303 146.437 2 146.437" stroke="#B6F61B" stroke-width="3.45675" stroke-linecap="round"/>
<path d="M16.2564 163.589C17.1474 157.204 21.6471 144.432 32.5176 144.432" stroke="#B6F61B" stroke-width="3.45675" stroke-linecap="round"/>
<path d="M16.2564 122.602C17.1474 129.879 21.6471 144.432 32.5176 144.432" stroke="#B6F61B" stroke-width="3.45675" stroke-linecap="round"/>
<path d="M16.2564 163.589C15.4752 157.872 11.5303 146.437 2 146.437" stroke="#B6F61B" stroke-width="3.45675" stroke-linecap="round"/>
<path d="M33.2525 2.82495C31.9953 8.61662 25.6464 20.1999 10.3086 20.1999" stroke="#B6F61B" stroke-width="3.45675" stroke-linecap="round"/>
<path d="M33.2525 43.5891C34.1435 37.8717 38.6432 26.4369 49.5137 26.4369" stroke="#B6F61B" stroke-width="3.45675" stroke-linecap="round"/>
<path d="M33.2525 2.60205C34.1435 10.547 38.6432 26.437 49.5137 26.437" stroke="#B6F61B" stroke-width="3.45675" stroke-linecap="round"/>
<path d="M33.2525 43.5891C31.9953 35.7926 25.6464 20.1997 10.3086 20.1997" stroke="#B6F61B" stroke-width="3.45675" stroke-linecap="round"/>
</svg>
