<?xml version="1.0" encoding="utf-8"?><svg xmlns="http://www.w3.org/2000/svg" xmlns:xlink="http://www.w3.org/1999/xlink"><symbol viewBox="0 0 8 15" id="arrow" xmlns="http://www.w3.org/2000/svg"><path d="M1.545 1.142 7.483 7.08a.594.594 0 0 1 0 .84l-5.938 5.938a.594.594 0 0 1-.84-.84L6.223 7.5.705 1.983a.594.594 0 1 1 .84-.84Z"/></symbol><symbol viewBox="0 0 22 22" id="arrow-down" xmlns="http://www.w3.org/2000/svg"><path d="M21.53 10.47a.75.75 0 0 1 0 1.06l-10 10a.75.75 0 0 1-1.06 0l-10-10a.75.75 0 0 1 1.06-1.06L11 19.939l9.47-9.469a.75.75 0 0 1 1.06 0Zm-11.06 1.06a.75.75 0 0 0 1.06 0l10-10A.75.75 0 0 0 20.47.47L11 9.939 1.53.47A.75.75 0 0 0 .47 1.53l10 10Z"/></symbol><symbol viewBox="0 0 63 51" id="check" xmlns="http://www.w3.org/2000/svg"><path d="M19.417 50.961a8.243 8.243 0 0 1-5.846-2.417L2.152 37.124c-2.87-2.869-2.87-7.538 0-10.408a7.313 7.313 0 0 1 5.205-2.156 7.31 7.31 0 0 1 5.205 2.156l6.855 6.855L50.439 2.549c2.87-2.87 7.539-2.87 10.409 0 2.87 2.87 2.87 7.54 0 10.41L25.263 48.544a8.242 8.242 0 0 1-5.846 2.417Z"/><path d="M50.439 2.55 31.5 21.487v20.818l29.348-29.348c2.87-2.87 2.87-7.539 0-10.409-2.87-2.87-7.54-2.87-10.41 0Z"/></symbol><symbol viewBox="0 0 23 23" id="close" xmlns="http://www.w3.org/2000/svg"><path d="M22.296.704a1.388 1.388 0 0 0-1.97 0L11.5 9.53 2.673.704a1.388 1.388 0 0 0-1.97 0 1.388 1.388 0 0 0 0 1.97L9.53 11.5.704 20.326a1.388 1.388 0 0 0 0 1.97c.268.268.629.413.98.413.35 0 .71-.135.979-.413l8.827-8.827 8.826 8.827c.268.268.63.413.98.413.36 0 .711-.135.98-.413a1.388 1.388 0 0 0 0-1.97L13.468 11.5l8.827-8.827a1.388 1.388 0 0 0 0-1.97Z"/></symbol><symbol viewBox="0 0 18 14" id="email" xmlns="http://www.w3.org/2000/svg"><path d="M16.418.672H1.582C.708.672 0 1.384 0 2.254v9.492c0 .875.713 1.582 1.582 1.582h14.836c.867 0 1.582-.704 1.582-1.582V2.254c0-.868-.705-1.582-1.582-1.582Zm-.222 1.055L10.12 7.772A1.572 1.572 0 0 1 9 8.236c-.423 0-.82-.165-1.12-.465L1.804 1.727h14.392ZM1.055 11.53V2.47l4.557 4.534-4.557 4.528Zm.75.742L6.36 7.747l.776.771A2.62 2.62 0 0 0 9 9.29c.704 0 1.366-.274 1.864-.771l.776-.772 4.556 4.526H1.804Zm15.14-.742-4.557-4.528 4.557-4.534v9.062Z"/></symbol><symbol viewBox="0 0 14 18" id="marker" xmlns="http://www.w3.org/2000/svg"><path d="M7 0A6.757 6.757 0 0 0 .25 6.75c0 4.679 6.093 10.826 6.352 11.086a.565.565 0 0 0 .796 0c.259-.26 6.352-6.407 6.352-11.086A6.757 6.757 0 0 0 7 0Zm0 16.624c-1.343-1.438-5.625-6.3-5.625-9.874A5.631 5.631 0 0 1 7 1.125a5.631 5.631 0 0 1 5.625 5.625c0 3.57-4.282 8.436-5.625 9.874Z"/><path d="M7 3.375A3.38 3.38 0 0 0 3.625 6.75 3.38 3.38 0 0 0 7 10.125a3.38 3.38 0 0 0 3.375-3.375A3.38 3.38 0 0 0 7 3.375ZM7 9C5.76 9 4.75 7.99 4.75 6.75S5.76 4.5 7 4.5s2.25 1.01 2.25 2.25S8.24 9 7 9Z"/></symbol><symbol viewBox="0 0 18 18" id="phone" xmlns="http://www.w3.org/2000/svg"><path d="m17.133 12.101-4.24-1.9-.011-.005a1.44 1.44 0 0 0-1.433.176l-2.19 1.868c-1.389-.674-2.821-2.096-3.495-3.466l1.87-2.224a1.44 1.44 0 0 0 .17-1.425v-.01L5.899.867A1.44 1.44 0 0 0 4.403.011 5.063 5.063 0 0 0 0 5.04C0 12.186 5.814 18 12.96 18a5.064 5.064 0 0 0 5.03-4.403 1.44 1.44 0 0 0-.857-1.496ZM12.96 16.56A11.532 11.532 0 0 1 1.44 5.04a3.618 3.618 0 0 1 3.138-3.6v.01l1.89 4.23-1.86 2.227a.55.55 0 0 0-.051.07 1.44 1.44 0 0 0-.09 1.413c.815 1.667 2.495 3.335 4.181 4.15a1.44 1.44 0 0 0 1.484-.154l2.188-1.866 4.23 1.894h.01a3.619 3.619 0 0 1-3.6 3.146Z"/></symbol><symbol viewBox="0 0 40 37" id="star" xmlns="http://www.w3.org/2000/svg"><path d="m20 0 4.49 13.82h14.531l-11.756 8.54 4.49 13.82L20 27.64 8.244 36.18l4.49-13.82L.98 13.82h14.53L20 0Z"/></symbol><symbol viewBox="0 0 18 18" id="time" xmlns="http://www.w3.org/2000/svg"><path d="m12.207 10.588-2.51-1.882V4.872a.697.697 0 1 0-1.394 0v4.183c0 .22.104.426.28.557l2.788 2.092a.693.693 0 0 0 .976-.14.696.696 0 0 0-.14-.976Z"/><path d="M9 0C4.037 0 0 4.037 0 9s4.037 9 9 9 9-4.037 9-9-4.037-9-9-9Zm0 16.606c-4.193 0-7.606-3.413-7.606-7.606S4.807 1.394 9 1.394c4.194 0 7.606 3.413 7.606 7.606S13.193 16.606 9 16.606Z"/></symbol></svg>