<?xml version="1.0" encoding="UTF-8"?>

<svg version="1.1" xmlns="http://www.w3.org/2000/svg" xmlns:xlink="http://www.w3.org/1999/xlink">
    <symbol viewBox="0 0 32 33" id="lang" xmlns="http://www.w3.org/2000/svg">
        <path fill-rule="evenodd" clip-rule="evenodd" d="M13.2375 2.56904C8.73657 3.53773 5.02571 6.63231 3.20769 10.75H9.74139C10.067 8.92767 10.5441 7.27748 11.1411 5.88309C11.718 4.53566 12.4211 3.39388 13.2375 2.56904ZM9.5129 12.25H2.64454C2.22569 13.5923 2 15.0198 2 16.5C2 17.9802 2.22569 19.4077 2.64454 20.75H9.51286C9.34135 19.3986 9.25 17.972 9.25 16.5002C9.25 15.0282 9.34136 13.6015 9.5129 12.25ZM11.0255 20.75C10.847 19.4126 10.75 17.9853 10.75 16.5002C10.75 15.0149 10.847 13.5875 11.0255 12.25H21.4745C21.653 13.5875 21.75 15.0149 21.75 16.5002C21.75 17.9853 21.653 19.4126 21.4745 20.75H11.0255ZM9.74133 22.25H3.20769C5.02566 26.3676 8.73634 29.4621 13.237 30.4309C12.4209 29.6061 11.7179 28.4644 11.1411 27.1172C10.5441 25.7228 10.067 24.0725 9.74133 22.25ZM19.263 30.4309C23.7637 29.4621 27.4743 26.3676 29.2923 22.25H22.7587C22.433 24.0725 21.9559 25.7228 21.3589 27.1172C20.7821 28.4644 20.0791 29.6061 19.263 30.4309ZM21.2336 22.25C20.9283 23.8652 20.4996 25.3132 19.98 26.5268C19.4382 27.7921 18.8124 28.7681 18.1557 29.4168C17.5022 30.0624 16.8591 30.3475 16.25 30.3475C15.6409 30.3475 14.9978 30.0624 14.3443 29.4168C13.6876 28.7681 13.0618 27.7921 12.52 26.5268C12.0004 25.3132 11.5717 23.8652 11.2664 22.25H21.2336ZM22.9871 20.75H29.8555C30.2743 19.4077 30.5 17.9802 30.5 16.5C30.5 15.0198 30.2743 13.5923 29.8555 12.25H22.9871C23.1586 13.6015 23.25 15.0282 23.25 16.5002C23.25 17.972 23.1587 19.3986 22.9871 20.75ZM22.7586 10.75H29.2923C27.4743 6.63231 23.7634 3.53772 19.2625 2.56904C20.0788 3.39388 20.782 4.53566 21.3589 5.88309C21.9559 7.27748 22.433 8.92767 22.7586 10.75ZM21.2335 10.75H11.2665C11.5718 9.13494 12.0004 7.68706 12.52 6.47349C13.0618 5.20823 13.6876 4.23226 14.3443 3.58352C14.9978 2.93795 15.6409 2.65283 16.25 2.65283C16.8591 2.65283 17.5022 2.93795 18.1557 3.58352C18.8124 4.23226 19.4382 5.20823 19.98 6.47349C20.4996 7.68706 20.9282 9.13494 21.2335 10.75ZM16.25 0.75C7.55152 0.75 0.5 7.80152 0.5 16.5C0.5 25.1985 7.55152 32.25 16.25 32.25C24.9485 32.25 32 25.1985 32 16.5C32 7.80152 24.9485 0.75 16.25 0.75Z" fill="currentColor"/>
    </symbol>

    <symbol viewBox="0 0 17 9" id="dropdown-arrow" xmlns="http://www.w3.org/2000/svg">
        <path fill-rule="evenodd" clip-rule="evenodd" d="M0.46967 0.21967C0.762563 -0.0732233 1.23744 -0.0732233 1.53033 0.21967L8.5 7.18934L15.4697 0.21967C15.7626 -0.0732233 16.2374 -0.0732233 16.5303 0.21967C16.8232 0.512563 16.8232 0.987437 16.5303 1.28033L9.03033 8.78033C8.73744 9.07322 8.26256 9.07322 7.96967 8.78033L0.46967 1.28033C0.176777 0.987437 0.176777 0.512563 0.46967 0.21967Z" fill="currentColor"/>
    </symbol>

    <symbol viewBox="0 0 28 25" id="catalog" xmlns="http://www.w3.org/2000/svg">
        <path fill-rule="evenodd" clip-rule="evenodd" d="M2.25 0.75C1.78587 0.75 1.34075 0.934375 1.01256 1.26256C0.684374 1.59075 0.5 2.03587 0.5 2.5V18.5C0.5 18.9641 0.684374 19.4092 1.01256 19.7374C1.34075 20.0656 1.78587 20.25 2.25 20.25H10.25C11.112 20.25 11.9386 20.5924 12.5481 21.2019C13.1576 21.8114 13.5 22.638 13.5 23.5C13.5 23.9142 13.8358 24.25 14.25 24.25C14.6642 24.25 15 23.9142 15 23.5C15 22.638 15.3424 21.8114 15.9519 21.2019C16.5614 20.5924 17.388 20.25 18.25 20.25H26.25C26.7141 20.25 27.1592 20.0656 27.4874 19.7374C27.8156 19.4092 28 18.9641 28 18.5V2.5C28 2.03587 27.8156 1.59075 27.4874 1.26256C27.1592 0.934375 26.7141 0.75 26.25 0.75H18.25C16.9902 0.75 15.782 1.25044 14.8912 2.14124C14.6475 2.38496 14.433 2.65244 14.25 2.93823C14.067 2.65244 13.8525 2.38496 13.6088 2.14124C12.718 1.25044 11.5098 0.75 10.25 0.75H2.25ZM15 5.5V20.0359C15.8791 19.2111 17.0408 18.75 18.25 18.75H26.25C26.3163 18.75 26.3799 18.7237 26.4268 18.6768C26.4737 18.6299 26.5 18.5663 26.5 18.5V2.5C26.5 2.43369 26.4737 2.37011 26.4268 2.32322C26.3799 2.27634 26.3163 2.25 26.25 2.25H18.25C17.388 2.25 16.5614 2.59241 15.9519 3.2019C15.3424 3.8114 15 4.63805 15 5.5ZM13.5 5.5C13.5 4.63805 13.1576 3.8114 12.5481 3.2019C11.9386 2.59241 11.112 2.25 10.25 2.25H2.25C2.1837 2.25 2.12011 2.27634 2.07322 2.32322C2.02634 2.37011 2 2.4337 2 2.5V18.5C2 18.5663 2.02634 18.6299 2.07322 18.6768C2.12011 18.7237 2.18369 18.75 2.25 18.75H10.25C11.4592 18.75 12.6209 19.2111 13.5 20.0359V5.5Z" fill="currentColor"/>
    </symbol>

    <symbol viewBox="0 0 15 16" id="link-arrow-sm" xmlns="http://www.w3.org/2000/svg">
        <path fill-rule="evenodd" clip-rule="evenodd" d="M13.2062 0.666504H2.52602L0.650513 2.4602H13.2062V15.0161L14.9999 13.2224V2.4602H15.0001V0.666504H14.9999H13.2062ZM10.4802 3.91838L11.7485 3.91838V5.18672L1.60184 15.3334L0.333507 14.0651L10.4802 3.91838Z" fill="currentColor"/>
    </symbol>

    <symbol viewBox="0 0 30 30" id="link-arrow" xmlns="http://www.w3.org/2000/svg">
        <path fill-rule="evenodd" clip-rule="evenodd" d="M27.0001 0.0146487C28.3808 0.0146487 29.5001 1.13394 29.5001 2.51465V25.0146C29.5001 26.3954 28.3808 27.5146 27.0001 27.5146C25.6194 27.5146 24.5001 26.3954 24.5001 25.0146V8.55018L4.76788 28.2824C3.79157 29.2587 2.20865 29.2587 1.23234 28.2824C0.256032 27.3061 0.256033 25.7232 1.23234 24.7469L20.9646 5.01465L4.50011 5.01465C3.1194 5.01465 2.00011 3.89536 2.00011 2.51465C2.00011 1.13394 3.1194 0.01465 4.50011 0.01465L27.0001 0.0146487Z" fill="currentColor"/>
    </symbol>

    <symbol viewBox="0 0 31 31" id="arrow-next" xmlns="http://www.w3.org/2000/svg">
        <path fill-rule="evenodd" clip-rule="evenodd" d="M30.4142 14.1004C31.1953 14.8815 31.1953 16.1478 30.4142 16.9288L17.6863 29.6568C16.9052 30.4378 15.6389 30.4378 14.8579 29.6568C14.0768 28.8757 14.0768 27.6094 14.8579 26.8283L24.1716 17.5146L2 17.5146C0.89543 17.5146 0 16.6192 0 15.5146C0 14.4101 0.89543 13.5146 2 13.5146L24.1716 13.5146L14.8579 4.20092C14.0768 3.41988 14.0768 2.15354 14.8579 1.3725C15.6389 0.591447 16.9052 0.591447 17.6863 1.3725L30.4142 14.1004Z" fill="currentColor"/>
    </symbol>

    <symbol viewBox="0 0 31 31" id="arrow-prev" xmlns="http://www.w3.org/2000/svg">
        <path fill-rule="evenodd" clip-rule="evenodd" d="M0.585786 16.9288C-0.195262 16.1478 -0.195262 14.8814 0.585786 14.1004L13.3137 1.37247C14.0948 0.59142 15.3611 0.59142 16.1421 1.37247C16.9232 2.15352 16.9232 3.41985 16.1421 4.2009L6.82843 13.5146H29C30.1046 13.5146 31 14.41 31 15.5146C31 16.6192 30.1046 17.5146 29 17.5146H6.82843L16.1421 26.8283C16.9232 27.6094 16.9232 28.8757 16.1421 29.6567C15.3611 30.4378 14.0948 30.4378 13.3137 29.6567L0.585786 16.9288Z" fill="currentColor"/>
    </symbol>

    <symbol viewBox="0 0 11 17" id="arrow-left" xmlns="http://www.w3.org/2000/svg">
        <path d="M1.00371 9.34159L8.31345 16.6511C8.77844 17.1163 9.53234 17.1163 9.9971 16.6511C10.4619 16.1863 10.4619 15.4324 9.9971 14.9677L3.52911 8.49988L9.99692 2.03231C10.4617 1.56732 10.4617 0.813539 9.99692 0.34874C9.53212 -0.116247 8.77825 -0.116247 8.31327 0.34874L1.00352 7.65836C0.771123 7.89087 0.655054 8.19528 0.655054 8.49984C0.655054 8.80455 0.771349 9.10919 1.00371 9.34159Z" fill="currentColor"/>
    </symbol>

    <symbol viewBox="0 0 11 17" id="arrow-right" xmlns="http://www.w3.org/2000/svg">
        <path d="M9.99629 9.34159L2.68655 16.6511C2.22156 17.1163 1.46766 17.1163 1.0029 16.6511C0.538097 16.1863 0.538097 15.4324 1.0029 14.9677L7.47089 8.49988L1.00308 2.03231C0.538285 1.56732 0.538285 0.813539 1.00308 0.34874C1.46788 -0.116247 2.22175 -0.116247 2.68673 0.34874L9.99648 7.65836C10.2289 7.89087 10.3449 8.19528 10.3449 8.49984C10.3449 8.80455 10.2287 9.10919 9.99629 9.34159Z" fill="currentColor"/>
    </symbol>

    <symbol viewBox="0 0 31 28" id="equipment" xmlns="http://www.w3.org/2000/svg">
        <path fill-rule="evenodd" clip-rule="evenodd" d="M7.72745 1.31212C8.51473 0.617352 9.52882 0.234351 10.5788 0.235222C11.1474 0.235343 11.7104 0.347544 12.2355 0.565409C12.7607 0.783274 13.2378 1.10253 13.6395 1.50492C14.0412 1.9073 14.3597 2.38493 14.5766 2.91048C14.7936 3.43603 14.9048 3.9992 14.904 4.56778V5.03036C16.464 5.74296 17.7053 7.00736 18.3891 8.58022L20.1959 12.7435H20.3217C21.4701 12.7462 22.5938 13.0768 23.5608 13.6963C24.5277 14.3158 25.2977 15.1985 25.7802 16.2406L29.9888 25.3655C30.1187 25.6474 30.1756 25.9574 30.1543 26.2671C30.1329 26.5767 30.034 26.876 29.8667 27.1374C29.6994 27.3988 29.469 27.614 29.1967 27.763C28.9245 27.912 28.6191 27.9902 28.3087 27.9902H17.1605C16.809 27.9903 16.4647 27.8903 16.168 27.7019C15.8713 27.5135 15.6344 27.2444 15.485 26.9263L12.5661 20.7073V26.1399C12.5661 26.6306 12.3711 27.1013 12.0241 27.4483C11.6771 27.7953 11.2065 27.9902 10.7157 27.9902H9.32799C8.83725 27.9902 8.36661 27.7953 8.01961 27.4483C7.6726 27.1013 7.47766 26.6306 7.47766 26.1399V25.2147H5.64213V26.1399C5.64213 26.6306 5.44718 27.1013 5.10018 27.4483C4.75317 27.7953 4.28253 27.9902 3.7918 27.9902H2.40405C1.91331 27.9902 1.44267 27.7953 1.09566 27.4483C0.748657 27.1013 0.553712 26.6306 0.553712 26.1399V4.5576C0.553109 3.72638 0.792348 2.91264 1.24272 2.214C1.6931 1.51537 2.33549 0.961512 3.09281 0.61889C3.85014 0.276267 4.69023 0.159428 5.51231 0.28239C6.33439 0.405352 7.10353 0.762893 7.72745 1.31212ZM12.3268 2.8096C11.8632 2.346 11.2344 2.08556 10.5788 2.08556C9.92319 2.08556 9.29442 2.346 8.83082 2.8096C8.36722 3.2732 8.10677 3.90197 8.10677 4.5576V7.62083L9.49452 7.62175V4.5576C9.49452 4.27003 9.60876 3.99423 9.81211 3.79089C10.0154 3.58754 10.2912 3.4733 10.5788 3.4733C10.8664 3.4733 11.1422 3.58754 11.3455 3.79089C11.5489 3.99423 11.6631 4.27003 11.6631 4.5576V7.63285L11.6844 7.62175V7.63655H12.0202C12.7416 7.63665 13.4472 7.84757 14.0502 8.24337C14.6533 8.63917 15.1276 9.2026 15.4147 9.86436L17.8266 15.4209C17.8872 15.5607 17.9815 15.6833 18.1009 15.7778C18.2203 15.8724 18.3613 15.936 18.5112 15.9631C18.5655 15.9729 18.6206 15.9779 18.6759 15.9779H20.319C20.8495 15.9778 21.3688 16.1297 21.8157 16.4156C22.2625 16.7016 22.618 17.1096 22.8401 17.5913L22.9427 17.8134L26.7803 26.1399H28.3087L24.1001 17.0085C23.767 16.2859 23.2338 15.674 22.5637 15.245C21.8936 14.8161 21.1146 14.5882 20.319 14.5883H18.9793L16.6886 9.31481C16.3642 8.56573 15.8643 7.90569 15.2312 7.39042C14.598 6.87515 13.8502 6.51976 13.0509 6.35427V4.5576C13.0509 3.90197 12.7904 3.2732 12.3268 2.8096ZM5.96039 7.61898L7.34814 7.6199V4.5576C7.34814 3.90197 7.08769 3.2732 6.62409 2.8096C6.16049 2.346 5.53172 2.08556 4.87609 2.08556C4.22046 2.08556 3.59169 2.346 3.12809 2.8096C2.66449 3.2732 2.40405 3.90197 2.40405 4.5576V26.1399H3.7918V23.3644H9.33077V26.1399H10.7185V17.3656H11.3115C11.8997 17.4548 12.4558 17.6909 12.9284 18.0522C13.4009 18.4135 13.7746 18.8883 14.0149 19.4324L17.1605 26.1399H18.6879L15.2722 18.8514C14.8549 17.9466 14.0695 17.0705 13.1499 16.5283C12.5821 16.2168 11.9545 16.0297 11.3088 15.9797H9.96913V15.9779L9.96266 15.9631L7.06781 9.31296C6.79389 8.67945 6.39416 8.10818 5.89285 7.63378C5.29889 7.0722 4.57819 6.66698 3.7918 6.44309V4.55575C3.7918 4.26818 3.90603 3.99238 4.10938 3.78904C4.31272 3.58569 4.58852 3.47145 4.87609 3.47145C5.16366 3.47145 5.43946 3.58569 5.6428 3.78904C5.84615 3.99238 5.96039 4.26818 5.96039 4.55575V7.61898ZM6.85751 12.306H3.7915V7.90869C4.68969 8.27277 5.4092 8.97468 5.79542 9.86357L6.85751 12.306ZM8.86419 16.9032H3.7915V14.1721H7.66888L8.81608 16.8106C8.83102 16.842 8.84707 16.8729 8.86419 16.9032ZM9.3277 21.4994H3.7915V18.7664H9.3277V21.4994Z" fill="currentColor"/>
    </symbol>

    <symbol viewBox="0 0 65 52" id="step" xmlns="http://www.w3.org/2000/svg">
        <path d="M46.988 21.103C46.4363 25.1115 45.9583 25.6631 42.1704 27.2445C41.7659 27.4283 41.3246 27.5387 40.8833 27.6858C40.6627 27.7593 40.4053 27.9064 40.2214 27.649C40.0375 27.3916 40.2582 27.1709 40.4053 26.987C41.1408 25.9573 41.6924 24.8541 41.8395 23.567C38.4562 28.7522 33.749 30.9955 27.7179 29.5981C21.4662 28.1638 18.5977 23.6405 17.899 17.2417C17.6784 18.3082 17.6048 19.1172 17.568 19.963C17.568 20.2205 17.6048 20.5882 17.2738 20.6617C17.0164 20.7353 16.8325 20.4779 16.6487 20.3308C15.2144 18.9333 14.5525 17.2049 14.957 15.2558C15.9132 10.6958 18.0461 6.76084 21.9443 4.0395C24.7391 2.09043 27.865 1.39169 31.2115 2.45816C31.469 2.53171 31.8367 2.86269 32.0573 2.53172C32.278 2.23752 31.947 1.94332 31.7632 1.6859L31.5425 1.46526C31.3219 1.13428 30.7702 0.950391 30.9541 0.435542C31.1012 0.0310185 31.616 0.104579 31.9838 0.0310289C32.4986 -0.0792958 32.8664 0.104578 33.087 0.582652C33.4916 1.35492 33.6387 2.16397 33.7858 2.97302C33.8961 3.56142 34.1168 3.8924 34.7787 3.78207C39.1917 3.08335 42.1704 5.32661 44.4873 8.67313C47.0615 12.4609 47.5764 16.6901 46.988 21.103Z" fill="currentColor"/>
        <path d="M17.09 41.8441C18.3403 44.8229 18.8184 47.912 19.039 51.0378H48.7899C46.5467 48.4636 44.7079 45.6687 43.1266 42.6531C42.6485 41.7706 42.7956 41.0718 43.3105 40.2995C44.3402 38.7918 45.4802 37.3576 46.6937 35.9969C49.8196 32.4297 52.8352 28.7154 56.4759 25.6264C58.6824 23.7508 60.9992 22.096 62.7644 19.7792C63.8676 18.3082 64.6767 16.7636 64.1618 14.8145C63.7573 13.1964 62.6541 12.7551 61.2566 13.7481C60.5947 14.2261 59.9327 14.741 59.234 15.2191C58.3514 15.8442 57.9836 15.6603 57.7262 14.5939C57.6894 14.3732 57.6527 14.1894 57.6159 13.9687C57.4688 13.5274 57.3952 13.0126 56.8069 13.0126C56.2552 13.0126 56.0713 13.4906 55.961 13.9319C55.7772 14.8513 55.5933 15.8075 55.483 16.7268C55.2255 18.8598 54.6739 20.8824 52.8352 22.2431C50.9229 23.6405 48.937 24.9644 46.9144 26.178C45.2228 27.1709 43.4943 28.1271 41.7291 28.9729C39.9639 29.8187 38.162 30.591 36.3232 31.2529C31.6528 32.9446 27.056 32.7239 22.8269 29.9658C20.3629 28.3845 18.0093 26.6561 15.619 24.9276C13.5964 23.4566 11.8312 21.7282 10.3234 19.7056C9.33047 18.3449 8.52142 16.8739 8.30077 15.1455C8.1169 13.5274 8.37432 11.9461 8.44787 10.328C8.44787 9.81315 8.55819 9.2983 8.33754 8.78345C8.19044 8.48925 8.08012 8.19506 7.67559 8.19506C7.34462 8.23184 7.19752 8.48926 7.08719 8.74668C6.90332 9.22476 6.75622 9.66605 6.57235 10.1441C6.3517 10.7693 5.98394 10.7693 5.57942 10.328C5.06457 9.7396 4.66005 9.07765 4.2923 8.4157C3.92455 7.79053 3.48325 7.31247 2.63743 7.34925C0.982555 7.45957 -0.304566 9.07766 0.0631826 10.659C0.283832 11.5416 0.578038 12.4242 0.909012 13.27C1.86516 15.8442 3.59358 17.9404 5.06457 20.1837C7.45494 23.8612 9.58789 27.649 11.7576 31.4736C13.6699 34.8569 15.5822 38.2402 17.09 41.8441Z" fill="currentColor"/>
    </symbol>

    <symbol viewBox="0 0 52 54" id="star" xmlns="http://www.w3.org/2000/svg">
        <path fill-rule="evenodd" clip-rule="evenodd" d="M30.3999 0.817674C31.7492 1.11057 32.6056 2.44181 32.3127 3.7911C30.6883 11.2743 22.5436 26.1086 3 26.1086C1.61929 26.1086 0.5 24.9893 0.5 23.6086C0.5 22.2279 1.61929 21.1086 3 21.1086C19.3806 21.1086 26.1062 8.81246 27.4265 2.73045C27.7193 1.38116 29.0506 0.524783 30.3999 0.817674Z" fill="currentColor"/>
        <path fill-rule="evenodd" clip-rule="evenodd" d="M29.4846 53.4701C28.1204 53.2575 27.1868 51.9792 27.3994 50.6149C27.9676 46.9693 29.6637 41.551 32.9859 36.9765C36.3495 32.345 41.5278 28.4129 48.9131 28.4129C50.2938 28.4129 51.4131 29.5322 51.4131 30.9129C51.4131 32.2936 50.2938 33.4129 48.9131 33.4129C43.5679 33.4129 39.7463 36.1765 37.0316 39.9146C34.2755 43.7096 32.8151 48.3348 32.3398 51.3849C32.1272 52.7491 30.8489 53.6827 29.4846 53.4701Z" fill="currentColor"/>
        <path fill-rule="evenodd" clip-rule="evenodd" d="M29.591 0.515555C28.2189 0.669436 27.2313 1.9065 27.3852 3.27861C27.9299 8.13567 29.5698 15.4359 32.7931 21.6036C35.9754 27.6928 41.127 33.413 48.9131 33.413C50.2938 33.413 51.4131 32.2937 51.4131 30.913C51.4131 29.5323 50.2938 28.413 48.9131 28.413C43.9687 28.413 40.1203 24.8289 37.2244 19.2877C34.3694 13.8249 32.8528 7.16864 32.354 2.72135C32.2002 1.34924 30.9631 0.361673 29.591 0.515555Z" fill="currentColor"/>
        <path fill-rule="evenodd" clip-rule="evenodd" d="M30.2676 53.468C31.6307 53.2482 32.5575 51.965 32.3377 50.6019C31.5516 45.7272 29.1989 38.4759 24.6171 32.3785C19.9888 26.2193 12.9637 21.1086 3 21.1086C1.61929 21.1086 0.499998 22.2279 0.499999 23.6086C0.499999 24.9893 1.61929 26.1086 3 26.1086C10.9984 26.1086 16.6719 30.1283 20.6198 35.3821C24.6142 40.6977 26.7152 47.1421 27.4014 51.3979C27.6213 52.761 28.9044 53.6878 30.2676 53.468Z" fill="currentColor"/>
    </symbol>

    <symbol viewBox="0 0 26 24" id="store" xmlns="http://www.w3.org/2000/svg">
        <path fill-rule="evenodd" clip-rule="evenodd" d="M3.35376 1.80041C3.39713 1.7677 3.44998 1.75 3.50431 1.75H21.9957C22.05 1.75 22.1029 1.7677 22.1463 1.80041C22.1896 1.83313 22.2212 1.87908 22.2361 1.93132L23.7557 7.25H16.75H9H8.75001H1.7443L3.26393 1.93132C3.27885 1.87908 3.31039 1.83313 3.35376 1.80041ZM17.5 8.75V10C17.5 10.0009 17.5 10.0018 17.5 10.0027C17.5007 10.8637 17.8431 11.6892 18.4519 12.2981C19.0614 12.9076 19.8881 13.25 20.75 13.25C21.2847 13.25 21.8058 13.1182 22.2699 12.8727C22.3346 12.8187 22.4086 12.7754 22.4891 12.7455C22.6898 12.6184 22.8775 12.4687 23.0481 12.2981C23.6576 11.6886 24 10.862 24 10V8.75H17.5ZM25.4664 7.77733L23.6784 1.51924C23.5739 1.15358 23.3532 0.831902 23.0495 0.60289C22.7459 0.37388 22.376 0.25 21.9957 0.25H3.50431C3.12401 0.25 2.75407 0.37388 2.45047 0.60289C2.14686 0.831901 1.92612 1.15358 1.82164 1.51924L0.0288635 7.79396C-0.0357902 8.02025 0.00952247 8.26376 0.151245 8.45165C0.180871 8.49092 0.213991 8.52682 0.25 8.55902V10C0.25 11.2598 0.750445 12.468 1.64124 13.3588C1.75577 13.4733 1.87555 13.5814 2.00001 13.6828V22.0002C2.00001 22.4643 2.18438 22.9095 2.51257 23.2376C2.84076 23.5658 3.28588 23.7502 3.75001 23.7502H21.75C22.2141 23.7502 22.6593 23.5658 22.9874 23.2376C23.3156 22.9095 23.5 22.4643 23.5 22.0002V13.873C23.7156 13.7199 23.9193 13.5482 24.1088 13.3588C24.9996 12.468 25.5 11.2598 25.5 10V8.00319M25.5 8C25.5 7.9886 25.4998 7.97718 25.4992 7.96577C25.4963 7.90043 25.485 7.83727 25.4664 7.77733M22 14.5826C21.5961 14.6928 21.176 14.75 20.75 14.75C19.4902 14.75 18.282 14.2496 17.3912 13.3588C17.1475 13.115 16.933 12.8476 16.75 12.5618C16.567 12.8476 16.3525 13.115 16.1088 13.3588C15.218 14.2496 14.0098 14.75 12.75 14.75C11.4902 14.75 10.282 14.2496 9.39125 13.3588C9.201 13.1685 9.02857 12.9638 8.87501 12.7472C8.72144 12.9638 8.549 13.1685 8.35876 13.3588C7.46796 14.2496 6.25978 14.75 5 14.75C4.48535 14.75 3.97931 14.6665 3.50001 14.5069V22.0002C3.50001 22.0665 3.52635 22.1301 3.57323 22.177C3.62011 22.2239 3.6837 22.2502 3.75001 22.2502H21.75C21.8163 22.2502 21.8799 22.2239 21.9268 22.177C21.9737 22.1301 22 22.0665 22 22.0002V14.5826ZM16 10V8.75H9.75V10C9.75 10.3296 9.71574 10.6557 9.64921 10.9734C9.8047 11.4687 10.0781 11.9242 10.4519 12.2981C11.0614 12.9076 11.8881 13.25 12.75 13.25C13.612 13.25 14.4386 12.9076 15.0481 12.2981C15.6576 11.6886 16 10.862 16 10ZM8.00001 10V8.75H1.75V10C1.75 10.862 2.09241 11.6886 2.7019 12.2981C3.3114 12.9076 4.13805 13.25 5 13.25C5.86195 13.25 6.6886 12.9076 7.2981 12.2981C7.67194 11.9242 7.9453 11.4687 8.1008 10.9734C8.03426 10.6557 8.00001 10.3296 8.00001 10Z" fill="currentColor"/>
    </symbol>

    <symbol viewBox="0 0 39 39" id="target" xmlns="http://www.w3.org/2000/svg">
        <path fill-rule="evenodd" clip-rule="evenodd" d="M38.7358 0.21967C39.0287 0.512563 39.0287 0.987437 38.7358 1.28033L33.2503 6.76582L33.2445 6.77165L33.2376 6.77847L19.9858 20.0303C19.6929 20.3232 19.218 20.3232 18.9251 20.0303C18.6322 19.7374 18.6322 19.2626 18.9251 18.9697L25.0009 12.8939C23.6579 11.7665 21.9977 11.0712 20.2396 10.9107C18.2315 10.7274 16.2225 11.2536 14.562 12.3978C12.9015 13.542 11.6945 15.2318 11.1506 17.1736C10.6067 19.1154 10.7604 21.1864 11.585 23.0266C12.4096 24.8669 13.853 26.36 15.6642 27.2465C17.4754 28.133 19.54 28.3568 21.4991 27.879C23.4583 27.4013 25.188 26.2521 26.3878 24.6314C27.5876 23.0106 28.1816 21.0207 28.0665 19.0074C28.0428 18.5939 28.3589 18.2395 28.7724 18.2158C29.186 18.1922 29.5404 18.5082 29.564 18.9218C29.6992 21.2852 29.0019 23.6212 27.5934 25.5238C26.185 27.4265 24.1544 28.7755 21.8545 29.3363C19.5547 29.8972 17.131 29.6344 15.0048 28.5938C12.8786 27.5531 11.1842 25.8003 10.2162 23.64C9.24817 21.4798 9.06771 19.0486 9.70617 16.7691C10.3446 14.4895 11.7617 12.5058 13.7109 11.1626C15.6602 9.81946 18.0185 9.20177 20.376 9.41692C22.4835 9.60927 24.4712 10.4564 26.065 11.8298L31.6414 6.25341C28.5196 3.38762 24.4783 1.71069 20.2282 1.53407C15.7275 1.34704 11.3205 2.85609 7.87906 5.76267C4.43766 8.66925 2.21253 12.7616 1.6439 17.2302C1.07526 21.6988 2.20454 26.218 4.80832 29.8939C7.41209 33.5697 11.3007 36.1344 15.7048 37.0805C20.109 38.0266 24.7078 37.2853 28.5915 35.0031C32.4752 32.721 35.3609 29.0643 36.6777 24.7564C37.9945 20.4486 37.6464 15.8034 35.7024 11.7399C35.5236 11.3662 35.6816 10.9184 36.0553 10.7396C36.4289 10.5609 36.8767 10.7189 37.0555 11.0925C39.1617 15.495 39.5388 20.5277 38.1122 25.1949C36.6855 29.8621 33.5591 33.8239 29.3514 36.2964C25.1437 38.7689 20.1613 39.5721 15.3898 38.5471C10.6183 37.522 6.40527 34.7434 3.58429 30.7609C0.763308 26.7784 -0.460172 21.8822 0.155898 17.0409C0.771968 12.1995 3.18271 7.76575 6.91119 4.61671C10.6397 1.46766 15.4143 -0.167269 20.2905 0.035368C24.9166 0.227613 29.3144 2.0605 32.7029 5.19185L37.6751 0.21967C37.968 -0.0732233 38.4429 -0.0732233 38.7358 0.21967Z" fill="currentColor"/>
    </symbol>

    <symbol viewBox="0 0 26 25" id="filter" xmlns="http://www.w3.org/2000/svg">
        <path fill-rule="evenodd" clip-rule="evenodd" d="M1.16946 0.323961C1.49416 0.112547 1.87328 1.19209e-07 2.26074 0H23.7396C24.1271 1.19209e-07 24.5062 0.112546 24.8309 0.323961C25.1556 0.535376 25.4119 0.836555 25.5687 1.19089C25.7254 1.54523 25.7759 1.93747 25.7139 2.31994C25.6519 2.70241 25.4802 3.05865 25.2195 3.34535L17.0002 12.3866L17.0002 19.4648C17.0002 19.7941 16.9189 20.1182 16.7635 20.4085C16.6082 20.6988 16.3836 20.9463 16.1096 21.1289L12.1096 23.7956C11.8084 23.9964 11.4583 24.1117 11.0968 24.1292C10.7352 24.1466 10.3756 24.0656 10.0565 23.8948C9.73731 23.724 9.47049 23.4698 9.28447 23.1592C9.09844 22.8487 9.00019 22.4935 9.00019 22.1315L9.00019 12.3866L0.780863 3.34535L1.5208 2.67267L0.780863 3.34534C0.520229 3.05865 0.348483 2.70242 0.2865 2.31994C0.224517 1.93747 0.274967 1.54523 0.431715 1.19089C0.588464 0.836554 0.844763 0.535376 1.16946 0.323961ZM23.7396 2H2.26074L10.4801 11.0413C10.8147 11.4094 11.0002 11.8891 11.0002 12.3866V22.1315L15.0002 19.4648V12.3866C15.0002 11.8891 15.1856 11.4094 15.5203 11.0413L23.7396 2Z" fill="currentColor"/>
    </symbol>

    <symbol viewBox="0 0 12 12" id="close" xmlns="http://www.w3.org/2000/svg">
        <path fill-rule="evenodd" clip-rule="evenodd" d="M5.05545 5.96333L0.453971 1.36185C0.33357 1.24145 0.26593 1.07815 0.26593 0.90788C0.26593 0.737608 0.33357 0.57431 0.453971 0.45391C0.574371 0.333509 0.737669 0.265869 0.907941 0.265869C1.07821 0.265869 1.24151 0.333509 1.36191 0.45391L5.96339 5.05539L10.5649 0.45391C10.6853 0.333509 10.8486 0.265869 11.0188 0.265869C11.1891 0.265869 11.3524 0.333509 11.4728 0.45391C11.5932 0.57431 11.6609 0.737608 11.6609 0.90788C11.6609 1.07815 11.5932 1.24145 11.4728 1.36185L6.87133 5.96333L11.3493 10.4413C11.4697 10.5617 11.5373 10.725 11.5373 10.8952C11.5373 11.0655 11.4697 11.2288 11.3493 11.3492C11.2289 11.4696 11.0656 11.5372 10.8953 11.5372C10.725 11.5372 10.5617 11.4696 10.4413 11.3492L5.96339 6.87127L1.48547 11.3492C1.36507 11.4696 1.20177 11.5372 1.0315 11.5372C0.861228 11.5372 0.697931 11.4696 0.577531 11.3492C0.45713 11.2288 0.38949 11.0655 0.38949 10.8952C0.38949 10.725 0.45713 10.5617 0.57753 10.4413L5.05545 5.96333Z" fill="currentColor"/>        
    </symbol>

    <symbol viewBox="0 0 26 26" id="download" xmlns="http://www.w3.org/2000/svg">
        <path d="M13 19.643L6.4285 13.0715L7.74289 11.7358L12.0714 16.0643V0H13.9286V16.0643L18.2571 11.7358L19.5715 13.0715L13 19.643ZM3.00021 26C2.14531 26 1.43155 25.7137 0.858929 25.1411C0.28631 24.5685 0 23.8547 0 22.9998V18.4999H1.85714V22.9998C1.85714 23.2858 1.97615 23.5478 2.21418 23.7858C2.4522 24.0238 2.71421 24.1429 3.00021 24.1429H22.9998C23.2858 24.1429 23.5478 24.0238 23.7858 23.7858C24.0238 23.5478 24.1429 23.2858 24.1429 22.9998V18.4999H26V22.9998C26 23.8547 25.7137 24.5685 25.1411 25.1411C24.5685 25.7137 23.8547 26 22.9998 26H3.00021Z" fill="currentColor"/>    
    </symbol>

    <symbol viewBox="0 0 20 25" id="file" xmlns="http://www.w3.org/2000/svg">
        <path d="M5.23684 19.7632H14.7105V17.8684H5.23684V19.7632ZM5.23684 14.7105H14.7105V12.8158H5.23684V14.7105ZM2.78347 24.5C2.14537 24.5 1.60526 24.2789 1.16316 23.8368C0.721053 23.3947 0.5 22.8546 0.5 22.2165V2.78347C0.5 2.14537 0.721053 1.60526 1.16316 1.16316C1.60526 0.721053 2.14537 0.5 2.78347 0.5H12.8158L19.4474 7.13158V22.2165C19.4474 22.8546 19.2263 23.3947 18.7842 23.8368C18.3421 24.2789 17.802 24.5 17.1639 24.5H2.78347ZM11.8684 8.07895V2.39474H2.78347C2.68621 2.39474 2.59716 2.43526 2.51632 2.51631C2.43526 2.59716 2.39474 2.68621 2.39474 2.78347V22.2165C2.39474 22.3138 2.43526 22.4028 2.51632 22.4837C2.59716 22.5647 2.68621 22.6053 2.78347 22.6053H17.1639C17.2612 22.6053 17.3502 22.5647 17.4311 22.4837C17.5121 22.4028 17.5526 22.3138 17.5526 22.2165V8.07895H11.8684Z" fill="currentColor"/>  
    </symbol>

    <symbol viewBox="0 0 12 23" id="facebook" xmlns="http://www.w3.org/2000/svg">
        <path d="M7.65708 12.3648H11.3793L11.9637 8.56055H7.65632V6.48134C7.65632 4.90099 8.16957 3.49962 9.63891 3.49962H12V0.179741C11.5852 0.123382 10.7078 0 9.04996 0C5.58819 0 3.55867 1.8393 3.55867 6.0297V8.56055H0V12.3648H3.55867V22.821C4.26344 22.9276 4.97729 23 5.71007 23C6.37245 23 7.01893 22.9391 7.65708 22.8522V12.3648Z" fill="currentColor" />
    </symbol>

    <symbol viewBox="0 0 20 20" id="instagram" xmlns="http://www.w3.org/2000/svg">
        <path d="M10 1.80723C12.6506 1.80723 13.0121 1.80723 14.0964 1.80723C15.0602 1.80723 15.5422 2.04819 15.9036 2.16868C16.3855 2.40964 16.747 2.53012 17.1084 2.89157C17.4699 3.25301 17.7108 3.61446 17.8313 4.09639C17.9518 4.45783 18.0723 4.93976 18.1928 5.90362C18.1928 6.98795 18.1928 7.22892 18.1928 10C18.1928 12.7711 18.1928 13.0121 18.1928 14.0964C18.1928 15.0602 17.9518 15.5422 17.8313 15.9036C17.5904 16.3855 17.4699 16.747 17.1084 17.1084C16.747 17.4699 16.3855 17.7108 15.9036 17.8313C15.5422 17.9518 15.0602 18.0723 14.0964 18.1928C13.0121 18.1928 12.7711 18.1928 10 18.1928C7.22892 18.1928 6.98795 18.1928 5.90362 18.1928C4.93976 18.1928 4.45783 17.9518 4.09639 17.8313C3.61446 17.5904 3.25301 17.4699 2.89157 17.1084C2.53012 16.747 2.28916 16.3855 2.16868 15.9036C2.04819 15.5422 1.92771 15.0602 1.80723 14.0964C1.80723 13.0121 1.80723 12.7711 1.80723 10C1.80723 7.22892 1.80723 6.98795 1.80723 5.90362C1.80723 4.93976 2.04819 4.45783 2.16868 4.09639C2.40964 3.61446 2.53012 3.25301 2.89157 2.89157C3.25301 2.53012 3.61446 2.28916 4.09639 2.16868C4.45783 2.04819 4.93976 1.92771 5.90362 1.80723C6.98795 1.80723 7.3494 1.80723 10 1.80723ZM10 0C7.22892 0 6.98795 0 5.90362 0C4.81928 0 4.09639 0.240965 3.49398 0.481928C2.89157 0.722892 2.28916 1.08434 1.68675 1.68675C1.08434 2.28916 0.843374 2.77109 0.481928 3.49398C0.240965 4.09639 0.120482 4.81928 0 5.90362C0 6.98795 0 7.3494 0 10C0 12.7711 0 13.0121 0 14.0964C0 15.1807 0.240965 15.9036 0.481928 16.506C0.722892 17.1084 1.08434 17.7108 1.68675 18.3133C2.28916 18.9157 2.77109 19.1566 3.49398 19.5181C4.09639 19.759 4.81928 19.8795 5.90362 20C6.98795 20 7.3494 20 10 20C12.6506 20 13.0121 20 14.0964 20C15.1807 20 15.9036 19.759 16.506 19.5181C17.1084 19.2771 17.7108 18.9157 18.3133 18.3133C18.9157 17.7108 19.1566 17.2289 19.5181 16.506C19.759 15.9036 19.8795 15.1807 20 14.0964C20 13.0121 20 12.6506 20 10C20 7.3494 20 6.98795 20 5.90362C20 4.81928 19.759 4.09639 19.5181 3.49398C19.2771 2.89157 18.9157 2.28916 18.3133 1.68675C17.7108 1.08434 17.2289 0.843374 16.506 0.481928C15.9036 0.240965 15.1807 0.120482 14.0964 0C13.0121 0 12.7711 0 10 0Z" fill="currentColor"/>
        <path d="M10 4.81928C7.10843 4.81928 4.81928 7.10843 4.81928 10C4.81928 12.8916 7.10843 15.1807 10 15.1807C12.8916 15.1807 15.1807 12.8916 15.1807 10C15.1807 7.10843 12.8916 4.81928 10 4.81928ZM10 13.3735C8.19277 13.3735 6.62651 11.9277 6.62651 10C6.62651 8.19277 8.07229 6.62651 10 6.62651C11.8072 6.62651 13.3735 8.07229 13.3735 10C13.3735 11.8072 11.8072 13.3735 10 13.3735Z" fill="currentColor"/>
        <path d="M15.3012 5.90362C15.9666 5.90362 16.506 5.3642 16.506 4.6988C16.506 4.03339 15.9666 3.49398 15.3012 3.49398C14.6358 3.49398 14.0964 4.03339 14.0964 4.6988C14.0964 5.3642 14.6358 5.90362 15.3012 5.90362Z" fill="currentColor"/>
    </symbol>

    <symbol viewBox="0 0 31 21" id="youtube" xmlns="http://www.w3.org/2000/svg">
        <path fill-rule="evenodd" clip-rule="evenodd" d="M3.48592 20.2031C2.94656 20.0435 2.45443 19.7597 2.05107 19.3754C1.6477 18.9912 1.34493 18.5179 1.1683 17.9954C0.159016 15.2951 -0.140032 4.01953 1.80378 1.7936C2.45071 1.06949 3.3641 0.623675 4.34568 0.552919C9.56033 0.00555947 25.6715 0.0785414 27.5219 0.735373C28.0423 0.900194 28.5178 1.17785 28.9127 1.54754C29.3076 1.91723 29.6117 2.36937 29.8021 2.87007C30.9049 5.66161 30.9422 15.806 29.6526 18.4881C29.3105 19.1862 28.7378 19.7517 28.0265 20.0936C26.0827 21.0424 6.06521 21.0242 3.48592 20.2031ZM11.7658 14.912L21.111 10.1682L11.7658 5.38793V14.912Z" fill="currentColor" />
    </symbol>

</svg>
