<svg width="85" height="85" viewBox="0 0 85 85" fill="none" xmlns="http://www.w3.org/2000/svg">
<path d="M84 42.5C84 65.4198 65.4198 84 42.5 84C19.5802 84 1 65.4198 1 42.5C1 19.5802 19.5802 1 42.5 1C65.4198 1 84 19.5802 84 42.5Z" fill="#B6F61B" stroke="#003D25" stroke-width="2"/>
<path d="M18.241 17.4281C18.2385 17.4658 18.2292 17.4988 18.2291 17.5374L18.13 52.4249C18.1291 52.7428 18.226 53.0627 18.3697 53.2211L41.9233 79.1796C42.0724 79.3445 42.2573 79.345 42.4073 79.181L66.2816 53.1688C66.4263 53.0112 66.5249 52.6918 66.5259 52.374L66.6249 17.4855C66.6257 17.1852 66.5217 16.8404 66.3852 16.6894L59.6473 9.26412C59.5035 9.10389 59.308 9.10333 59.1633 9.26275L52.5538 16.4637L47.6575 21.7984C47.657 21.7993 47.6565 21.8003 47.656 21.8012L42.3612 27.5702L25.7862 9.30396C25.6415 9.1428 25.4479 9.14225 25.3022 9.30258L18.4733 16.7426C18.3456 16.8819 18.2601 17.1581 18.241 17.4281C18.2385 17.4658 18.2455 17.3629 18.241 17.4281ZM49.8356 21.5401L52.4255 18.7192L52.3869 32.3263L50.0882 34.8302L48.341 36.7339L48.3797 23.1259L49.8356 21.5401ZM25.9279 44.4567L25.9498 36.7282L41.8016 54.1988L41.7797 61.9264L25.9279 44.4567ZM48.0923 39.1205L53.109 33.6538C53.1095 33.6538 53.1095 33.6529 53.1095 33.6529L58.87 27.3755L58.8495 34.5648L42.7755 52.0797L42.7959 44.8913L48.0913 39.1214C48.0918 39.1205 48.0918 39.1205 48.0923 39.1205ZM53.3733 25.7937L58.8915 19.781L58.876 25.2564L53.3578 31.2691L53.3733 25.7937ZM59.8379 27.3791L65.6108 33.7417L65.5904 40.9301L59.8175 34.5684L59.8379 27.3791ZM65.6168 31.6199L59.8439 25.2582L59.8594 19.7829L65.6324 26.1454L65.6168 31.6199ZM19.1508 33.799L25.0084 27.4162L24.9879 34.6055L19.1304 40.9874L19.1508 33.799ZM25.9763 27.4189L41.8276 44.8886L41.8072 52.077L25.9559 34.6083L25.9763 27.4189ZM47.3701 37.793L42.802 42.7704L42.8175 37.296L47.3857 32.3186L47.3701 37.793ZM41.8341 42.7668L25.9828 25.2981L25.9983 19.8227L41.8496 37.2923L41.8341 42.7668ZM25.0144 25.2962L19.1568 31.6772L19.1724 26.2028L25.0299 19.82L25.0144 25.2962ZM19.1244 43.1092L24.9819 36.7264L24.96 44.4549L19.1025 50.8368L19.1244 43.1092ZM42.7695 54.2015L58.8435 36.6857L58.8216 44.4142L42.7476 61.9291L42.7695 54.2015ZM59.8114 36.6884L65.5844 43.0519L65.5625 50.7804L59.7895 44.4169L59.8114 36.6884ZM65.6384 24.0246L59.8654 17.6629L59.8825 11.6502L65.6555 18.0128L65.6384 24.0246ZM58.8975 17.6602L53.3793 23.6729L53.3964 17.6611L58.9146 11.6484L58.8975 17.6602ZM47.3917 30.1968L42.8235 35.1751L42.8406 29.1615L47.4088 24.1841L47.3917 30.1968ZM41.8556 35.1724L26.0043 17.7028L26.0214 11.6901L41.8727 29.1588L41.8556 35.1724ZM25.0359 17.7L19.1784 24.0819L19.1955 18.0701L25.053 11.6873L25.0359 17.7ZM42.1706 77.324L19.5819 52.4291L25.4394 46.0472L42.0149 64.3134C42.1553 64.4699 42.3576 64.4705 42.4988 64.3148L59.301 46.0064L65.074 52.3699L42.1706 77.324Z" fill="#003D25"/>
</svg>
